<svg width="28" height="28" viewBox="0 0 28 28" fill="none" xmlns="http://www.w3.org/2000/svg">
  <path fill-rule="evenodd" clip-rule="evenodd" d="M27.8175 6.76719C28.0309 5.9702 28.0536 5.16703 27.9136 4.4062C27.3725 5.64442 26.0001 6.34539 24.6469 6.00239C24.2042 5.89018 23.8129 5.67873 23.4906 5.39783C23.3503 5.29434 23.2225 5.17396 23.1105 5.03907C22.9136 4.80214 22.7696 4.52588 22.688 4.22877L22.6797 4.19761C22.5048 3.69555 22.4701 3.13844 22.6103 2.58462C22.894 1.46383 23.814 0.672403 24.8869 0.498329C24.6119 0.371266 24.3223 0.26584 24.0197 0.184712C21.3256 -0.537681 18.5608 0.923627 17.6021 3.48441C18.2284 4.0358 18.7853 4.66436 19.2578 5.35523C19.2598 5.0737 19.2973 4.78779 19.3735 4.50308C19.5871 3.70543 20.0688 3.05176 20.6953 2.61281C20.6631 2.73883 20.6367 2.86651 20.6163 2.99547C20.5224 3.5877 20.556 4.19316 20.7148 4.77136C20.8736 5.34956 21.1539 5.88717 21.537 6.34824C21.9201 6.80932 22.3971 7.18323 22.9362 7.44498C23.4753 7.70672 24.0641 7.85027 24.6631 7.86602C24.7441 7.86815 24.8251 7.86793 24.9058 7.86539C24.0846 8.61635 22.91 8.94485 21.7569 8.63565C21.3056 8.51464 20.9002 8.3074 20.5539 8.03635C20.6515 8.35193 20.734 8.67419 20.8004 9.00228C20.8666 9.00012 20.9331 8.99902 20.9998 8.99902C22.4182 8.99902 23.7217 9.49153 24.7487 10.315C26.2073 9.68713 27.3747 8.4211 27.8175 6.76719Z" fill="url(#paint0_linear_9_3108)"/>
  <path fill-rule="evenodd" clip-rule="evenodd" d="M22 21.9572C25.375 21.57 28 18.6028 28 15C28 11.134 24.9776 8.00001 21.2493 8.00001C21.1054 8.00001 20.9626 8.00467 20.821 8.01387C19.5661 3.38977 15.469 0 10.6083 0C4.74949 0 0 4.92487 0 11C0 16.1419 3.40237 20.4598 8 21.665V19.5772C4.55261 18.4291 2 15.0657 2 11C2 5.96046 5.92179 2 10.6083 2C14.5839 2 18.0091 4.85004 18.9569 8.79115L18.9599 8.78992C19.0937 9.33674 19.1791 9.90367 19.2108 10.4855C19.8339 10.1732 20.5272 10 21.2493 10C23.8053 10 26 12.1696 26 15C26 17.5486 24.2205 19.5615 22 19.937V21.9572ZM11.5021 26.0021C11.7442 26.0021 12.0022 25.7921 12.0021 25.456C12.0021 25.272 11.9389 24.9263 11.7435 24.4168C11.6656 24.2136 11.5746 24.0045 11.4744 23.7938C11.1753 24.4437 11.0015 25.0277 11.0017 25.456C11.0018 25.7921 11.2599 26.0021 11.5021 26.0021ZM10.2923 21.7572C10.9029 20.7302 11.5002 20 11.5002 20C11.5002 20 12.0699 20.7554 12.6655 21.7778C13.318 22.8977 14.0018 24.3379 14.0021 25.456C14.0025 26.8622 12.8835 28.0021 11.5027 28.0021C10.1218 28.0021 9.00211 26.8622 9.00167 25.456C9.0013 24.229 9.65402 22.8309 10.2923 21.7572ZM18.0021 22.456C18.0022 22.7921 17.7442 23.0021 17.5021 23.0021C17.2599 23.0021 17.0018 22.7921 17.0017 22.456C17.0015 22.0277 17.1753 21.4437 17.4744 20.7938C17.5746 21.0045 17.6656 21.2136 17.7435 21.4168C17.9389 21.9263 18.0021 22.272 18.0021 22.456ZM17.5002 17C17.5002 17 16.9029 17.7302 16.2923 18.7572C15.654 19.8309 15.0013 21.229 15.0017 22.456C15.0021 23.8622 16.1218 25.0021 17.5027 25.0021C18.8835 25.0021 20.0025 23.8622 20.0021 22.456C20.0018 21.3379 19.318 19.8977 18.6655 18.7778C18.0699 17.7554 17.5002 17 17.5002 17Z" fill="url(#paint1_linear_9_3108)"/>
  <defs>
    <linearGradient id="paint0_linear_9_3108" x1="22.802" y1="0.000244141" x2="22.802" y2="10.315" gradientUnits="userSpaceOnUse">
      <stop stop-color="#F5BD52"/>
      <stop offset="1" stop-color="#F5DA79"/>
    </linearGradient>
    <linearGradient id="paint1_linear_9_3108" x1="14" y1="0" x2="14" y2="28.0021" gradientUnits="userSpaceOnUse">
      <stop stop-color="#95B6F6"/>
      <stop offset="1" stop-color="#5193DE"/>
    </linearGradient>
  </defs>
</svg>