<svg width="28" height="28" viewBox="0 0 28 28" fill="none" xmlns="http://www.w3.org/2000/svg">
  <path fill-rule="evenodd" clip-rule="evenodd" d="M25.0693 10.1726C25.6561 9.33035 26.0002 8.30641 26.0002 7.2021C26.0002 4.32906 23.6711 2 20.7981 2C19.4845 2 18.2846 2.4869 17.369 3.29007C16.8431 2.85511 16.2719 2.47294 15.6636 2.15166C16.9701 0.823553 18.7879 0 20.7981 0C24.7757 0 28.0002 3.22449 28.0002 7.2021C28.0002 8.98988 27.3488 10.6255 26.2704 11.8846C25.9565 11.254 25.5502 10.6774 25.0693 10.1726Z" fill="url(#paint0_linear_9_2989)"/>
  <path fill-rule="evenodd" clip-rule="evenodd" d="M22 21.9572C25.375 21.57 28 18.6028 28 15C28 11.134 24.9776 8.00001 21.2493 8.00001C21.1054 8.00001 20.9626 8.00467 20.821 8.01387C19.5661 3.38977 15.469 0 10.6083 0C4.74949 0 0 4.92487 0 11C0 16.1419 3.40237 20.4598 8 21.665V19.5772C4.55261 18.4291 2 15.0657 2 11C2 5.96046 5.92179 2 10.6083 2C14.5839 2 18.0091 4.85004 18.9569 8.79115L18.9599 8.78992C19.0937 9.33674 19.1791 9.90367 19.2108 10.4855C19.8339 10.1732 20.5272 10 21.2493 10C23.8053 10 26 12.1696 26 15C26 17.5486 24.2205 19.5615 22 19.937V21.9572ZM11.5021 26.0021C11.7442 26.0021 12.0022 25.7921 12.0021 25.456C12.0021 25.272 11.9389 24.9263 11.7435 24.4168C11.6656 24.2136 11.5746 24.0045 11.4744 23.7938C11.1753 24.4437 11.0015 25.0277 11.0017 25.456C11.0018 25.7921 11.2599 26.0021 11.5021 26.0021ZM10.2923 21.7572C10.9029 20.7302 11.5002 20 11.5002 20C11.5002 20 12.0699 20.7554 12.6655 21.7778C13.318 22.8977 14.0018 24.3379 14.0021 25.456C14.0025 26.8622 12.8835 28.0021 11.5027 28.0021C10.1218 28.0021 9.00211 26.8622 9.00167 25.456C9.0013 24.229 9.65402 22.8309 10.2923 21.7572ZM18.0021 22.456C18.0022 22.7921 17.7442 23.0021 17.5021 23.0021C17.2599 23.0021 17.0018 22.7921 17.0017 22.456C17.0015 22.0277 17.1753 21.4437 17.4744 20.7938C17.5746 21.0045 17.6656 21.2136 17.7435 21.4168C17.9389 21.9263 18.0021 22.272 18.0021 22.456ZM17.5002 17C17.5002 17 16.9029 17.7302 16.2923 18.7572C15.654 19.8309 15.0013 21.229 15.0017 22.456C15.0021 23.8622 16.1218 25.0021 17.5027 25.0021C18.8835 25.0021 20.0025 23.8622 20.0021 22.456C20.0018 21.3379 19.318 19.8977 18.6655 18.7778C18.0699 17.7554 17.5002 17 17.5002 17Z" fill="url(#paint1_linear_9_2989)"/>
  <defs>
    <linearGradient id="paint0_linear_9_2989" x1="21.8319" y1="0" x2="21.8319" y2="11.8846" gradientUnits="userSpaceOnUse">
      <stop stop-color="#EFC977"/>
      <stop offset="1" stop-color="#E07256"/>
    </linearGradient>
    <linearGradient id="paint1_linear_9_2989" x1="14" y1="0" x2="14" y2="28.0021" gradientUnits="userSpaceOnUse">
      <stop stop-color="#95B6F6"/>
      <stop offset="1" stop-color="#5193DE"/>
    </linearGradient>
  </defs>
</svg>